HIERARCHY
ROOT Hips
{
  OFFSET 47.6033 49.4497 -5.30764
  CHANNELS 6 Xposition Yposition Zposition Zrotation Xrotation Yrotation
  JOINT spine
  {
    OFFSET 0 6.2448 0.359107
    CHANNELS 3 Zrotation Xrotation Yrotation
    JOINT spine1
    {
      OFFSET 0 9.06941 0
      CHANNELS 3 Zrotation Xrotation Yrotation
      JOINT spine2
      {
        OFFSET 0 8.69014 0
        CHANNELS 3 Zrotation Xrotation Yrotation
        JOINT Neck
        {
          OFFSET 0 22.3112 1.06372
          CHANNELS 3 Zrotation Xrotation Yrotation
          JOINT Head
          {
            OFFSET 0 6.74081 0
            CHANNELS 3 Zrotation Xrotation Yrotation
            End Site
            {
              OFFSET 0 16.3165 -5.38097
            }
          }
        }
        JOINT RightShoulder
        {
          OFFSET -3.65916 9.38468 -0.509514
          CHANNELS 3 Zrotation Xrotation Yrotation
          JOINT RightArm
          {
            OFFSET 0 12.3089 0
            CHANNELS 3 Zrotation Xrotation Yrotation
            JOINT RightArmRoll
            {
              OFFSET 0 6.21375 0
              CHANNELS 3 Zrotation Xrotation Yrotation
              JOINT RightForeArm
              {
                OFFSET 0 18.0985 0
                CHANNELS 3 Zrotation Xrotation Yrotation
                JOINT RightForeArmRoll
                {
                  OFFSET 0 6.9728 0
                  CHANNELS 3 Zrotation Xrotation Yrotation
                  JOINT RightHand
                  {
                    OFFSET 0 13.9929 0
                    CHANNELS 3 Zrotation Xrotation Yrotation
                    End Site
                    {
                      OFFSET 0 0 0
                    }
                  }
                }
              }
            }
          }
        }
        JOINT LeftShoulder
        {
          OFFSET 3.65916 9.38468 -0.509514
          CHANNELS 3 Zrotation Xrotation Yrotation
          JOINT LeftArm
          {
            OFFSET 0 12.3089 0
            CHANNELS 3 Zrotation Xrotation Yrotation
            JOINT LeftArmRoll
            {
              OFFSET 0 6.21375 0
              CHANNELS 3 Zrotation Xrotation Yrotation
              JOINT LeftForeArm
              {
                OFFSET 0 18.0985 0
                CHANNELS 3 Zrotation Xrotation Yrotation
                JOINT LeftForeArmRoll
                {
                  OFFSET 0 6.97279 0
                  CHANNELS 3 Zrotation Xrotation Yrotation
                  JOINT LeftHand
                  {
                    OFFSET 0 13.9929 0
                    CHANNELS 3 Zrotation Xrotation Yrotation
                    End Site
                    {
                      OFFSET 0 0 0
                    }
                  }
                }
              }
            }
          }
        }
      }
    }
  }
  JOINT RightUpLeg
  {
    OFFSET -5.53516 -1.015 -0.851454
    CHANNELS 3 Zrotation Xrotation Yrotation
    JOINT RightUpLegRoll
    {
      OFFSET 0 16.4075 0
      CHANNELS 3 Zrotation Xrotation Yrotation
      JOINT RightLeg
      {
        OFFSET 0 -20.3181 0
        CHANNELS 3 Zrotation Xrotation Yrotation
        JOINT RightLegRoll
        {
          OFFSET 0 20.3846 0
          CHANNELS 3 Zrotation Xrotation Yrotation
          JOINT RightFoot
          {
            OFFSET 0 16.9668 0
            CHANNELS 3 Zrotation Xrotation Yrotation
            JOINT RightToeBase
            {
              OFFSET 0 14.1834 0
              CHANNELS 3 Zrotation Xrotation Yrotation
              End Site
              {
                OFFSET 0.0060118 6.8689 -0.791745
              }
            }
          }
        }
      }
    }
  }
  JOINT LeftUpLeg
  {
    OFFSET 5.53516 -1.015 -0.851454
    CHANNELS 3 Zrotation Xrotation Yrotation
    JOINT LeftUpLegRoll
    {
      OFFSET 0 16.4076 0
      CHANNELS 3 Zrotation Xrotation Yrotation
      JOINT LeftLeg
      {
        OFFSET 0 20.3181 0
        CHANNELS 3 Zrotation Xrotation Yrotation
        JOINT LeftLegRoll
        {
          OFFSET 0 20.5731 0
          CHANNELS 3 Zrotation Xrotation Yrotation
          JOINT LeftFoot
          {
            OFFSET 0 16.7783 0
            CHANNELS 3 Zrotation Xrotation Yrotation
            JOINT LeftToeBase
            {
              OFFSET 0 14.1834 0
              CHANNELS 3 Zrotation Xrotation Yrotation
              End Site
              {
                OFFSET -0.0269423 6.8689 -0.791746
              }
            }
          }
        }
      }
    }
  }
}
MOTION
Frames: 11
Frame Time: 0.00208333
47.2085 58.9658 1.56973 -2.3852 40.4417 -0.833714 0.577657 0.759613 -0.00429154 1.15944 5.52089 -0.0902865 1.16281 7.16578 -0.109966 -16.7669 0.0503931 0.456474 8.78373 0.434162 -2.43375 35.4188 -6.82737 -3.0465 138.014 22.7508 -48.4705 1.8911e-006 1.51369e-006 1.21035e-006 33.8722 72.1907 -29.4664 -7.06021e-006 7.30132e-007 -3 8.02886 -4.95139 0.697681 -67.1023 -2.09652 2.0372 -85.0316 31.4172 36.2887 3.24582e-007 8.59319e-007 -1.87591e-006 -38.0103 69.9142 32.0515 2.68094e-006 -2.86019e-006 3 -8.02969 -4.95151 -0.697682 -25.1802 68.7066 -154.195 -180 7.01623e-015 179.327 176.239 82.7256 -177.516 8.90174e-007 -2.0949e-006 1.70387 -30.6436 75.4386 29.7 8.21974 26.5484 -3.52372 -3.4893 69.2722 -172.192 4.54188e-006 -4.6773e-006 -0.779114 142.429 -85.8339 140.705 -1.12593e-006 -1.14121e-006 -2.71449 29.1044 76.7378 -31.4178 -8.06339 28.6801 -1.09788 
47.2194 58.9134 1.52823 -2.36739 40.3784 -0.830644 0.575688 0.759346 -0.00302992 1.15501 5.52037 -0.0868967 1.15833 7.16526 -0.106497 -16.7438 0.00855804 0.409913 8.69382 0.436909 -2.47756 35.4968 -6.85632 -3.0788 137.968 22.7334 -48.4705 1.8911e-006 1.51369e-006 1.21035e-006 33.8788 72.2604 -29.5099 -7.06021e-006 7.30132e-007 -3 8.02886 -4.95139 0.697681 -67.1087 -2.04616 2.01118 -85.0173 31.3511 36.2469 3.24582e-007 8.59319e-007 -1.87591e-006 -37.9167 69.9897 32.0306 2.68094e-006 -2.86019e-006 3 -8.02969 -4.95151 -0.697682 -25.0903 68.6948 -154.279 -180 7.01622e-015 179.326 176.326 82.7629 -177.601 8.90174e-007 -2.0949e-006 1.70318 -30.5828 75.4142 29.6456 8.21795 26.5236 -3.52296 -3.46376 69.2469 -172.255 4.54188e-006 -4.6773e-006 -0.780702 142.812 -85.7948 141.088 -1.12593e-006 -1.14121e-006 -2.71231 29.0343 76.7048 -31.342 -8.06411 28.6776 -1.09604 
47.2198 58.8584 1.48305 -2.34858 40.3139 -0.827666 0.573661 0.75908 -0.00165852 1.15042 5.51989 -0.0832257 1.15368 7.16478 -0.102743 -16.7194 -0.0316585 0.363456 8.60207 0.438403 -2.52125 35.5764 -6.88599 -3.11186 137.92 22.7158 -48.4701 1.8911e-006 1.51369e-006 1.21035e-006 33.8838 72.3295 -29.5517 -7.06021e-006 7.30132e-007 -3 8.02886 -4.95139 0.697681 -67.1146 -1.99433 1.98438 -85.0041 31.2843 36.2045 3.24582e-007 8.59319e-007 -1.87591e-006 -37.821 70.0642 32.0071 2.68094e-006 -2.86019e-006 3 -8.02969 -4.95151 -0.697682 -25.0045 68.6841 -154.361 -180 7.01622e-015 179.325 176.43 82.7985 -177.703 8.90174e-007 -2.0949e-006 1.7023 -30.5167 75.389 29.589 8.21613 26.4982 -3.5222 -3.43786 69.2231 -172.319 4.54188e-006 -4.6773e-006 -0.782303 143.177 -85.7567 141.451 -1.12593e-006 -1.14121e-006 -2.70999 28.9614 76.6704 -31.2632 -8.06483 28.6753 -1.09448 
47.2219 58.7277 1.47413 -2.32887 40.2482 -0.825005 0.571603 0.758858 -0.000196253 1.14574 5.5195 -0.0793392 1.14895 7.16439 -0.0987718 -16.6951 -0.0709982 0.317478 8.50953 0.439323 -2.56456 35.6566 -6.91624 -3.14548 137.871 22.6983 -48.4697 1.8911e-006 1.51369e-006 1.21035e-006 33.8871 72.3976 -29.5914 -7.06021e-006 7.30132e-007 -3 8.02886 -4.95139 0.697681 -67.1199 -1.94258 1.95755 -84.9935 31.2182 36.1621 3.24582e-007 8.59319e-007 -1.87591e-006 -37.7243 70.1371 31.9817 2.68094e-006 -2.86019e-006 3 -8.02969 -4.95151 -0.697682 -24.9225 68.6745 -154.441 -180 7.01622e-015 179.324 176.547 82.833 -177.816 8.90174e-007 -2.0949e-006 1.70129 -30.4468 75.3633 29.5308 8.21429 26.4726 -3.52143 -3.41169 69.2009 -172.384 4.54188e-006 -4.6773e-006 -0.783924 143.526 -85.7193 141.799 -1.12593e-006 -1.14121e-006 -2.70761 28.8869 76.635 -31.1827 -8.06555 28.673 -1.09309 
47.2226 58.7006 1.44805 -2.30834 40.1812 -0.822883 0.569541 0.758719 0.001338 1.14106 5.51929 -0.075303 1.14421 7.16418 -0.0946507 -16.6721 -0.110203 0.272356 8.41728 0.440347 -2.60722 35.7365 -6.94692 -3.17948 137.823 22.6808 -48.4693 1.8911e-006 1.51369e-006 1.21035e-006 33.8884 72.4641 -29.6288 -7.06021e-006 7.30132e-007 -3 8.02886 -4.95139 0.697681 -67.1241 -1.89242 1.93149 -84.9871 31.1538 36.1203 3.24582e-007 8.59319e-007 -1.87591e-006 -37.6278 70.208 31.955 2.68094e-006 -2.86019e-006 3 -8.02969 -4.95151 -0.697682 -24.844 68.6657 -154.519 -180 7.01622e-015 179.323 176.675 82.8672 -177.939 8.90174e-007 -2.0949e-006 1.70022 -30.3745 75.3374 29.4718 8.21246 26.4472 -3.52067 -3.38533 69.1802 -172.449 4.54188e-006 -4.6773e-006 -0.785571 143.863 -85.6819 142.136 -1.12593e-006 -1.14121e-006 -2.70527 28.8122 76.5993 -31.1018 -8.06627 28.6709 -1.09178 
47.2263 58.7054 1.37551 -2.28707 40.1131 -0.821522 0.567501 0.758705 0.00292533 1.13647 5.51934 -0.0711826 1.13956 7.16423 -0.0904469 -16.6516 -0.150014 0.228466 8.32638 0.442157 -2.64899 35.8151 -6.9779 -3.21366 137.776 22.6637 -48.4692 1.8911e-006 1.51369e-006 1.21035e-006 33.8877 72.5286 -29.6635 -7.06021e-006 7.30132e-007 -3 8.02886 -4.95139 0.697681 -67.1269 -1.8454 1.90696 -84.9866 31.0924 36.0797 3.24582e-007 8.59319e-007 -1.87591e-006 -37.5328 70.2762 31.9276 2.68094e-006 -2.86019e-006 3 -8.02969 -4.95151 -0.697682 -24.7688 68.6578 -154.595 -180 7.01622e-015 179.322 176.81 82.902 -178.069 8.90174e-007 -2.0949e-006 1.69916 -30.3014 75.3115 29.413 8.21067 26.4224 -3.51994 -3.35886 69.1608 -172.513 4.54188e-006 -4.6773e-006 -0.787251 144.193 -85.6441 142.464 -1.12593e-006 -1.14121e-006 -2.70304 28.7384 76.5638 -31.0219 -8.06696 28.6687 -1.09045 
47.2305 58.636 1.37713 -2.26515 40.0437 -0.821142 0.565511 0.758857 0.00454686 1.13203 5.51972 -0.0670437 1.13506 7.16462 -0.0862273 -16.6349 -0.191174 0.186184 8.23789 0.445429 -2.68959 35.8915 -7.00901 -3.24781 137.731 22.647 -48.4697 1.8911e-006 1.51369e-006 1.21035e-006 33.8847 72.5906 -29.6951 -7.06021e-006 7.30132e-007 -3 8.02886 -4.95139 0.697681 -67.128 -1.80304 1.88474 -84.9936 31.0352 36.0408 3.24582e-007 8.59319e-007 -1.87591e-006 -37.4403 70.3412 31.9002 2.68094e-006 -2.86019e-006 3 -8.02969 -4.95151 -0.697682 -24.6968 68.6506 -154.668 -180 7.01622e-015 179.32 176.948 82.9381 -178.2 8.90174e-007 -2.0949e-006 1.69816 -30.2288 75.286 29.3549 8.20896 26.3984 -3.51924 -3.33237 69.1428 -172.577 4.54188e-006 -4.6773e-006 -0.78897 144.517 -85.6053 142.787 -1.12593e-006 -1.14121e-006 -2.701 28.6668 76.5292 -30.9443 -8.06763 28.6665 -1.089 
47.2371 58.6001 1.32979 -2.24268 39.9732 -0.821964 0.563595 0.759214 0.00618367 1.12784 5.52052 -0.0629521 1.13082 7.16541 -0.0820593 -16.6233 -0.234425 0.145886 8.1529 0.450845 -2.72878 35.9647 -7.04012 -3.28175 137.69 22.6308 -48.471 1.8911e-006 1.51369e-006 1.21035e-006 33.8795 72.6498 -29.7231 -7.06021e-006 7.30132e-007 -3 8.02886 -4.95139 0.697681 -67.1269 -1.76687 1.8656 -85.0096 30.9833 36.0041 3.24582e-007 8.59319e-007 -1.87591e-006 -37.3518 70.4025 31.8735 2.68094e-006 -2.86019e-006 3 -8.02969 -4.95151 -0.697682 -24.6276 68.6441 -154.737 -180 7.01621e-015 179.319 177.086 82.9763 -178.332 8.90174e-007 -2.0949e-006 1.69729 -30.1582 75.2611 29.2985 8.20734 26.3758 -3.51859 -3.30597 69.126 -172.64 4.54188e-006 -4.6773e-006 -0.790736 144.84 -85.5651 143.107 -1.12593e-006 -1.14121e-006 -2.69924 28.5985 76.4959 -30.8702 -8.06826 28.6642 -1.08734 
47.2391 58.5541 1.30973 -2.21974 39.9015 -0.824206 0.561782 0.759817 0.00781687 1.12398 5.5218 -0.0589734 1.1269 7.16669 -0.0780098 -16.618 -0.280507 0.107948 8.07246 0.459082 -2.76627 36.0337 -7.07109 -3.31527 137.653 22.6153 -48.4732 1.8911e-006 1.51369e-006 1.21035e-006 33.8717 72.7056 -29.7474 -7.06021e-006 7.30132e-007 -3 8.02886 -4.95139 0.697681 -67.1234 -1.73842 1.85032 -85.0361 30.938 35.9703 3.24582e-007 8.59319e-007 -1.87591e-006 -37.2683 70.4596 31.8482 2.68094e-006 -2.86019e-006 3 -8.02969 -4.95151 -0.697682 -24.561 68.6381 -154.803 -180 7.01621e-015 179.317 177.22 83.0174 -178.459 8.90174e-007 -2.0949e-006 1.69661 -30.0909 75.237 29.2445 8.20584 26.355 -3.51799 -3.27972 69.1104 -172.701 4.54188e-006 -4.6773e-006 -0.792554 145.164 -85.5229 143.428 -1.12593e-006 -1.14121e-006 -2.69784 28.5347 76.4647 -30.8009 -8.06884 28.6618 -1.08536 
47.2471 58.5162 1.273 -2.19644 39.8287 -0.828087 0.560098 0.760708 0.00942757 1.12053 5.52364 -0.0551733 1.1234 7.16854 -0.0741461 -16.6202 -0.330164 0.0727474 7.99766 0.470819 -2.80182 36.0976 -7.10176 -3.34819 137.621 22.6007 -48.4767 1.8911e-006 1.51369e-006 1.21035e-006 33.8612 72.7576 -29.7674 -7.06021e-006 7.30132e-007 -3 8.02886 -4.95139 0.697681 -67.1172 -1.71923 1.83968 -85.0749 30.9005 35.9398 3.24582e-007 8.59319e-007 -1.87591e-006 -37.1912 70.5119 31.8248 2.68094e-006 -2.86019e-006 3 -8.02969 -4.95151 -0.697682 -24.4969 68.6325 -154.865 -180 7.01621e-015 179.316 177.348 83.0622 -178.579 8.90174e-007 -2.0949e-006 1.69619 -30.0285 75.2142 29.1936 8.20449 26.3362 -3.51747 -3.25371 69.0959 -172.76 4.54188e-006 -4.6773e-006 -0.794431 145.49 -85.4783 143.75 -1.12593e-006 -1.14121e-006 -2.69689 28.4766 76.436 -30.7377 -8.06936 28.6593 -1.08298 
47.2475 58.4661 1.25084 -2.17286 39.7546 -0.833822 0.558569 0.761928 0.0109969 1.11757 5.52613 -0.0516174 1.12039 7.17102 -0.0705353 -16.6313 -0.384137 0.0406595 7.92957 0.486736 -2.83517 36.1554 -7.13199 -3.3803 137.596 22.5871 -48.4816 1.8911e-006 1.51369e-006 1.21035e-006 33.8479 72.8054 -29.7827 -7.06021e-006 7.30132e-007 -3 8.02886 -4.95139 0.697681 -67.1078 -1.71083 1.83444 -85.1273 30.8719 35.9133 3.24582e-007 8.59319e-007 -1.87591e-006 -37.1217 70.5588 31.8041 2.68094e-006 -2.86019e-006 3 -8.02969 -4.95151 -0.697682 -24.4349 68.6274 -154.922 -180 7.01621e-015 179.314 177.465 83.1115 -178.688 8.90174e-007 -2.0949e-006 1.69608 -29.9722 75.1928 29.1466 8.20333 26.3199 -3.51703 -3.22804 69.0825 -172.817 4.54188e-006 -4.6773e-006 -0.796374 145.822 -85.4306 144.077 -1.12593e-006 -1.14121e-006 -2.69646 28.4252 76.4105 -30.6816 -8.06981 28.6565 -1.08009 
